<?xml version="1.0" encoding="utf-8"?>
<!-- Generator: Adobe Illustrator 21.0.0, SVG Export Plug-In . SVG Version: 6.00 Build 0)  -->
<svg version="1.1" id="Layer_1" xmlns="http://www.w3.org/2000/svg" xmlns:xlink="http://www.w3.org/1999/xlink" x="0px" y="0px"
	 viewBox="0 0 250 250" style="enable-background:new 0 0 250 250;" xml:space="preserve">
<g>
	<path d="M199.1,46c-7.1,7.1-14.3,14.2-21.4,21.3c-3.3-2.7-6.7-5.7-10.3-8.3c-10.8-7.7-22.8-12.6-36-14.4
		c-10.3-1.4-20.5-1.2-30.5,1.2c-13.5,3.2-25.5,9.4-35.9,18.6c-10.5,9.2-18.1,20.4-23,33.4c-3.7,9.9-5.5,20.2-5.2,30.7
		c0.6,18.7,6.6,35.5,18.4,50c11.2,13.9,25.5,23.2,42.7,28c11.7,3.2,23.5,3.7,35.4,1.7c15.2-2.5,28.6-8.8,40.2-18.8
		c14-12,23.1-27.1,27.1-45.2c2-8.9,2.7-17.9,1.5-27c-0.3-2-0.5-4-1-6c-0.3-1.5-0.1-2.5,1.1-3.6c7.5-7.4,15-14.9,22.4-22.3
		c0.1-0.1,0.3-0.2,0.4-0.3c15.6,35.1,12.2,96.5-39.1,133.6C134.8,255.5,64,243.9,27.3,192.7C-9.7,141,3,70.2,53.8,34.2
		C104.5-1.8,167.2,12.3,199.1,46z"/>
	<path d="M119,137.1c5.5-5.5,10.6-10.7,15.8-15.8C162.4,93.6,190,66,217.6,38.4c4.3-4.3,9.5-5.8,15.4-4.1c5.7,1.7,9.4,5.6,10.6,11.4
		c1.2,5.6-0.5,10.5-4.5,14.5c-11.4,11.4-22.8,22.8-34.2,34.2c-8.8,8.8-17.6,17.6-26.4,26.4c-15.1,15.1-30.3,30.3-45.5,45.4
		c-2.1,2.1-4.2,4.3-6.7,5.8c-5.7,3.5-13.2,2.4-17.9-2.3c-9.3-9.3-18.5-18.7-27.8-28.1c-5-5-10.1-10-14.8-15.2
		c-7.9-8.8-3.5-22.4,8-24.9c5.5-1.2,10.4,0.3,14.4,4.3c9.6,9.7,19.2,19.5,28.8,29.2C117.6,135.5,118.2,136.2,119,137.1z"/>
</g>
</svg>
