<?xml version="1.0" encoding="utf-8"?>
<!-- Generator: Adobe Illustrator 21.0.0, SVG Export Plug-In . SVG Version: 6.00 Build 0)  -->
<svg version="1.1" id="Layer_1" xmlns="http://www.w3.org/2000/svg" xmlns:xlink="http://www.w3.org/1999/xlink" x="0px" y="0px"
	 viewBox="0 0 500 500" style="enable-background:new 0 0 500 500;" xml:space="preserve">
<g>
	<path d="M421,442c-108.8,0-217.5,0-326.3,0c-0.9-0.3-1.9-0.6-2.8-0.8c-12.3-3.2-20.6-10.7-24.8-22.7c-0.7-1.9-1.1-3.8-1.6-5.7
		c0-91,0-182,0-273c0.2-0.6,0.5-1.1,0.6-1.7c4.2-17.4,16.8-27.5,34.7-27.5c9.6,0,19.2-0.1,28.9,0c2.5,0,3.7-0.4,4.3-3.2
		c1.4-6.2,5.1-11,10.3-14.7c5.9-4.2,12.7-5.2,19.6-4.6c3.8,0.3,5.5-0.7,6.6-4.7c3.9-14.3,16.9-24.5,31.5-25.3
		c15.3-0.8,29.1,7.8,34.8,21.8c1.1,2.6,1.2,6.5,3.1,7.7c2.2,1.4,5.8,0.4,8.8,0.5c12.7,0.1,22.6,7.7,25.8,19.9
		c0.6,2.2,1.5,2.7,3.5,2.7c9.6-0.1,19.2,0,28.9,0c21.7,0,36,14.2,36,35.9c0,29.9,0,59.7,0,89.6c0,1.3,0,2.7,0,4.1c1.4,0,2.4,0,3.3,0
		c14.3-0.5,25.4,5.3,31.9,18.1c22.8,45.1,45.4,90.3,67.8,135.6c9.6,19.4-1.7,42.3-22.7,47.4C422.6,441.4,421.8,441.7,421,442z
		 M133,133c-10.7,0-20.9,0-31.2,0c-9.8,0-13.9,4.1-13.9,13.9c0,86.2,0,172.5,0,258.7c0,9.8,4.1,13.9,13.9,13.9
		c47.6,0,95.2,0,142.9,0c1.4,0,2.7,0,3.4,0c0-7.6,0-14.9,0-22.5c-0.8,0-2.3,0-3.8,0c-39.9,0-79.7,0-119.6,0c-1.1,0-2.3,0-3.4,0
		c-5.8-0.3-10.4-4.8-10.8-10.5c-0.4-5.5,3.5-10.6,9-11.7c1.6-0.3,3.2-0.3,4.8-0.3c44.1,0,88.2,0,132.4-0.1c1.3,0,3.4-0.3,3.9-1.1
		c3.7-6.9,7.1-13.9,10.8-21.4c-2.2,0-3.7,0-5.2,0c-47.1,0-94.2,0-141.4,0c-1.2,0-2.5,0.1-3.7,0c-5.8-0.4-10.4-5-10.7-10.6
		c-0.3-5.5,3.6-10.5,9.1-11.6c1.5-0.3,3-0.2,4.5-0.2c51.5,0,103,0,154.5,0.1c3,0,4.6-0.8,5.9-3.6c10.9-22.2,21.9-44.3,33.2-66.3
		c2-3.8,2.8-7.5,2.8-11.7c-0.1-28.5-0.1-57-0.1-85.5c0-6,0.1-12,0-18c-0.1-6-4.1-11.1-9.9-11.3c-11.6-0.4-23.2-0.1-35.1-0.1
		c0,3.8,0.1,7.2,0,10.7c-0.1,6.9-4.7,11.7-11.5,11.7c-39.9,0.1-79.7,0.1-119.6,0c-6.6,0-11.2-4.9-11.3-11.5
		C132.9,140.5,133,137,133,133z M348.4,419.5c21.8,0,43.5,0,65.2,0c11.3,0,16.2-8,11.1-18.1c-21.8-43.7-43.6-87.3-65.4-131
		c-2.3-4.6-5.4-7.8-10.8-7.9c-5.6-0.1-8.8,3.2-11.2,7.9c-21.8,43.7-43.6,87.3-65.5,130.9c-5,10.1,0,18.1,11.2,18.1
		C304.9,419.5,326.7,419.5,348.4,419.5z M252.9,132.8c0-1.1,0.1-1.7,0.1-2.3c0-5,0-10,0-15c0-3.9-1.2-5-5.3-5c-5.2,0-10.5,0-15.7,0
		c-7.2,0-11-3-12.8-10.1c-0.8-3-1.5-6.1-2.3-9.1c-1.7-6.7-6.4-10.7-12.6-10.8c-6.2,0-11,4-12.7,10.6c-0.8,3.1-1.5,6.3-2.4,9.4
		c-1.7,6.8-5.6,9.9-12.6,9.9c-5.5,0-11,0-16.5,0c-2.4,0-4.5,0.9-4.6,3.4c-0.2,6.3-0.1,12.6-0.1,19
		C188.2,132.8,220.4,132.8,252.9,132.8z"/>
	<path d="M192.6,307c-23.4,0-46.7,0-70.1,0c-9.1,0-14.7-8.5-10.8-16.2c2.3-4.5,6.1-6.3,11-6.3c19.7,0,39.5,0,59.2,0
		c27.1,0,54.2,0,81.3,0c9,0,14.7,8,11.3,15.7c-2.2,4.8-6.2,6.8-11.5,6.8C239.6,307,216.1,307,192.6,307z"/>
	<path d="M140.5,208.8c0-5.7,0-11.4,0-17.2c0.1-7,4.7-12,11.1-12.1c6.6-0.1,11.4,5,11.4,12.2c0,5.7,0,11.5,0,17.8c3.1,0,6,0,8.9,0
		c3,0,6,0,9,0c7,0.1,12,4.7,12.1,11.2c0,6.4-5,11.2-11.9,11.3c-5.7,0.1-11.5,0.1-17.2,0.1c-0.1,0-0.2,0.1-0.9,0.3
		c0,6,0.1,12.2,0,18.4c-0.2,8.4-8.5,13.6-15.9,10.1c-4.3-2.1-6.5-5.7-6.5-10.5c0-6,0-11.9,0-18.4c-6.5,0-12.7,0.1-18.9,0
		c-8.5-0.3-13.7-8.9-9.8-16.3c2.2-4.1,5.8-6.1,10.4-6.1c5.9,0,11.7-0.1,17.6-0.1C139.9,209.4,140,209.2,140.5,208.8z"/>
	<path d="M256.7,217c-9.6,0-19.2,0-28.8,0c-7.3,0-12.3-4.6-12.4-11.2c-0.1-6.5,5-11.3,12.2-11.3c19.3,0,38.7,0,58,0
		c7.2,0,12.3,4.8,12.2,11.3c-0.1,6.6-5.1,11.1-12.4,11.1C276,217,266.3,217,256.7,217z"/>
	<path d="M256.8,239.5c9.6,0,19.2,0,28.8,0c7.3,0,12.3,4.6,12.4,11.2c0,6.6-5,11.3-12.3,11.3c-19.3,0-38.7,0-58,0
		c-7.2,0-12.3-4.8-12.2-11.4c0.1-6.4,5.1-11.1,12.1-11.1C237.3,239.5,247.1,239.5,256.8,239.5z"/>
	<path d="M359.6,326.1c0,7.1,0,14.2,0,21.3c-0.1,7-4.7,12-11.1,12c-6.4,0-11.3-5-11.3-11.9c-0.1-14.6-0.1-29.2,0-43.8
		c0-6.9,5-11.9,11.4-11.8c6.4,0.1,11,5,11.1,12.1c0,0.2,0,0.5,0,0.7C359.6,311.9,359.6,319,359.6,326.1z"/>
	<path d="M359.6,385.9c-0.1,6.2-5.1,11.1-11.2,11.1c-6,0-11.2-5.2-11.2-11.2c0-6.1,5.3-11.4,11.5-11.3
		C354.8,374.6,359.6,379.7,359.6,385.9z"/>
</g>
</svg>
