<?xml version="1.0" encoding="utf-8"?>
<!-- Generator: Adobe Illustrator 21.0.0, SVG Export Plug-In . SVG Version: 6.00 Build 0)  -->
<svg version="1.1" id="Layer_1" xmlns="http://www.w3.org/2000/svg" xmlns:xlink="http://www.w3.org/1999/xlink" x="0px" y="0px"
	 viewBox="0 0 500 500" style="enable-background:new 0 0 500 500;" xml:space="preserve">
<g>
	<path d="M49.5,97c1.9-7.5,4.2-14.8,9.1-21.1c9-11.4,20.6-17.7,35.1-17.9c30.5-0.2,61-0.2,91.4,0c24.2,0.1,44.2,20.1,44.3,44.2
		c0.2,40.5,0.2,80.9,0,121.4c-0.1,24.2-20.1,44.1-44.3,44.2c-30.1,0.2-60.2,0.1-90.3,0c-22.2-0.1-40.3-15.2-44.6-36.9
		c-0.1-0.7-0.5-1.4-0.7-2C49.5,185,49.5,141,49.5,97z M199.5,163c0-19.4,0-38.7,0-58.1c0-10.9-6-16.9-16.9-16.9
		c-28.7,0-57.5,0-86.2,0c-10.9,0-16.9,6-16.9,16.9c0,38.7,0,77.5,0,116.2c0,10.9,6,16.9,16.9,16.9c28.7,0,57.5,0,86.2,0
		c10.9,0,16.9-6,16.9-16.9C199.5,201.8,199.5,182.4,199.5,163z"/>
	<path d="M292.5,442c-7.3-2-14.6-4.1-20.7-8.9c-11.7-9.1-18.1-20.9-18.2-35.7c-0.2-40.2-0.1-80.5,0-120.7
		c0.1-24.6,20-44.6,44.6-44.7c30.2-0.1,60.5-0.1,90.7,0c24.6,0.1,44.5,20.1,44.6,44.7c0.1,39.9,0.1,79.7,0,119.6
		c0,22.7-15,40.6-37.3,45c-0.6,0.1-1.1,0.5-1.7,0.7C360.5,442,326.5,442,292.5,442z M403.5,337c0-19.4,0-38.7,0-58.1
		c0-10.9-6-16.9-16.9-16.9c-28.7,0-57.5,0-86.2,0c-10.9,0-16.9,6-16.9,16.9c0,38.7,0,77.5,0,116.2c0,10.9,6,16.9,16.9,16.9
		c28.7,0,57.5,0,86.2,0c10.9,0,16.9-6,16.9-16.9C403.5,375.7,403.5,356.4,403.5,337z"/>
	<path d="M49.5,331c2-7.5,4.2-14.8,9.1-21.1c9-11.4,20.6-17.7,35.1-17.9c30.5-0.2,61-0.2,91.5,0c24.2,0.1,44.1,20.1,44.3,44.3
		c0.2,20.1,0.1,40.2,0,60.3c-0.1,22-15,40.2-36.6,44.6c-0.8,0.2-1.6,0.5-2.4,0.8c-34,0-68,0-102,0c-0.8-0.3-1.6-0.6-2.4-0.8
		c-13.2-2.9-23.7-9.8-30.3-21.7c-2.9-5.1-4.2-11-6.3-16.6C49.5,379,49.5,355,49.5,331z M139.5,412c14.6,0,29.2,0,43.8,0
		c9.9,0,16.1-6.2,16.1-16.2c0-19.2,0-38.5,0-57.7c0-9.9-6.3-16.1-16.2-16.1c-29.2,0-58.5,0-87.7,0c-9.9,0-16.1,6.2-16.1,16.2
		c0,19.2,0,38.5,0,57.7c0,9.9,6.2,16.1,16.2,16.1C110.3,412.1,124.9,412,139.5,412z"/>
	<path d="M343.9,58c14.6,0,29.2,0,43.9,0c26,0.1,45.7,19.8,45.8,45.9c0,19.5,0,39,0,58.5c-0.1,25.8-19.8,45.6-45.6,45.6
		c-29.6,0.1-59.2,0.1-88.8,0c-25.7-0.1-45.5-19.9-45.6-45.7c0-19.6-0.1-39.2,0-58.8c0.1-25.5,19.9-45.4,45.4-45.5
		C313.9,58,328.9,58,343.9,58z M343.5,178c14.5,0,29,0,43.5,0c10.4,0,16.5-6.1,16.5-16.5c0-19,0-38,0-57c0-10.4-6.1-16.5-16.5-16.5
		c-29,0-58,0-86.9,0c-10.4,0-16.5,6.1-16.5,16.5c0,19,0,38,0,57c0,10.4,6.1,16.5,16.5,16.5C314.5,178.1,329,178,343.5,178z"/>
</g>
</svg>
