<?xml version="1.0" encoding="utf-8"?>
<!-- Generator: Adobe Illustrator 21.0.0, SVG Export Plug-In . SVG Version: 6.00 Build 0)  -->
<svg version="1.1" id="Layer_1" xmlns="http://www.w3.org/2000/svg" xmlns:xlink="http://www.w3.org/1999/xlink" x="0px" y="0px"
	 viewBox="0 0 500 500" style="enable-background:new 0 0 500 500;" xml:space="preserve">
<g>
	<path d="M256.6,45.1c6.3,1.7,12.4,3.9,17.4,8.4c6.9,6.2,9.9,14.3,11.3,23.2c0.8,5.1,1.5,10.3,2.7,15.3c0.3,1.5,1.8,3.2,3.2,3.8
		c7,3.2,14.2,6.1,21.4,8.9c1.3,0.5,3.4,0.3,4.5-0.4c5.4-3.5,10.5-7.3,15.8-10.9c14.2-9.7,29.9-8.9,42.5,2.6
		c7.1,6.5,13.8,13.3,20.2,20.5c8.7,9.9,10,24.9,3.2,36.2c-4.1,6.8-9,13.2-13.3,19.9c-0.7,1.2-0.9,3.2-0.4,4.5
		c2.7,7.1,5.8,14,8.5,21.1c0.9,2.3,2.1,3.3,4.5,3.7c7.2,1.2,14.5,2.3,21.6,4c14.6,3.6,24.2,15.4,24.9,30.5c0.4,8.9,0.4,17.9,0,26.8
		c-0.6,15.7-10.9,27.7-26.2,31.2c-5.4,1.2-11.1-2-12.6-7.2c-1.5-5.1,1.4-10.6,6.5-12.6c10.1-3.9,11.6-6,11.6-16.8
		c0-5.9,0-11.7,0-17.6c0-9.1-3.5-13.3-12.2-14.9c-8.1-1.5-16.2-3-24.4-4.2c-6-0.9-9.3-4-11.3-9.7c-3.8-10.3-8-20.5-12.6-30.6
		c-2.4-5.3-2.5-9.8,1-14.5c5-6.8,9.7-13.7,14.5-20.6c5-7.2,4.6-12.6-1.6-18.9c-4.9-4.9-9.7-9.9-14.7-14.7
		c-5.8-5.7-11.2-6.1-17.9-1.5c-7,4.8-14.1,9.7-20.9,14.7c-4.7,3.5-9.2,3.5-14.5,1.1c-10.1-4.6-20.5-8.8-30.9-12.7
		c-5.3-2-8.4-5.2-9.3-10.8c-1.3-8.2-2.8-16.3-4.2-24.4C263,69.6,258.8,66,249.7,66c-6.9,0-13.9-0.1-20.8,0
		c-7.5,0.1-11.7,3.4-13.2,10.7c-1.7,8.6-3.3,17.3-4.6,26c-0.9,6-4.1,9.2-9.8,11.3c-10.3,3.8-20.5,8.1-30.5,12.6
		c-5.3,2.4-9.8,2.5-14.5-1c-6.8-5-13.7-9.7-20.6-14.5c-7.2-5-12.6-4.5-18.9,1.7c-4.7,4.7-9.5,9.4-14.1,14.1
		c-6.2,6.3-6.7,11.6-1.7,18.9c4.9,7,9.7,14,14.7,20.9c3.2,4.5,3.2,8.8,1,13.8c-4.6,10.3-9,20.7-12.9,31.3c-2.1,5.5-5.4,8.5-11.2,9.4
		c-8.3,1.3-16.6,2.7-24.8,4.3c-8.4,1.5-11.8,5.8-11.9,14.4c0,6.9,0,13.9,0,20.8c0.1,7.9,3.4,12.1,11.2,13.7c8.5,1.7,17,3.2,25.6,4.5
		c5.8,0.9,9.1,3.9,11.1,9.4c3.9,10.4,8.2,20.8,12.8,30.9c2.4,5.3,2.4,9.8-1.1,14.5c-5,6.8-9.7,13.7-14.5,20.6
		c-4.9,7.1-4.5,12.5,1.5,18.6c4.9,4.9,9.8,9.8,14.7,14.7c6,5.8,11.4,6.3,18.2,1.6c7.1-4.9,14.2-9.9,21.3-14.9
		c4.5-3.2,8.8-3.2,13.8-0.9c10.3,4.6,20.7,8.9,31.3,12.9c5.2,2,8.3,5,9.1,10.4c1.3,8.1,2.8,16.3,4.2,24.4c1.6,9.5,5.7,13,15.4,13
		c6,0,12,0,18,0c9.8,0,12.5-1.8,15.9-11.2c2-5.5,7.5-8.5,12.7-6.9c5.4,1.6,8.7,7.3,7,12.9c-1.1,3.8-2.5,7.7-4.6,11
		c-6.3,9.8-15.6,14.6-27.2,14.9c-8.3,0.2-16.5,0.2-24.8,0c-16.8-0.4-29.4-11.3-32.5-28c-1.1-6.2-2.3-12.3-3.2-18.5
		c-0.4-2.4-1.4-3.6-3.7-4.5c-7.1-2.7-14-5.8-21.1-8.5c-1.3-0.5-3.4-0.3-4.5,0.4c-6.5,4.2-12.6,9-19.2,12.9
		c-12.2,7.3-26.9,6.1-37.5-3.3c-7-6.2-13.6-12.8-19.9-19.7c-11.5-12.6-12.3-28.2-2.6-42.5c3.6-5.3,7.4-10.4,10.9-15.8
		c0.7-1.2,0.9-3.2,0.4-4.5c-2.7-7.1-5.8-14-8.5-21.1c-0.9-2.3-2.1-3.3-4.5-3.7c-6.2-0.9-12.4-2-18.5-3.2
		c-14.3-2.8-23.5-11.1-27.2-25.3c-0.2-0.9-0.6-1.8-0.8-2.6c0-11.2,0-22.4,0-33.6c0.3-0.9,0.6-1.8,0.8-2.6
		c3.7-14.2,12.9-22.5,27.2-25.3c6.1-1.2,12.3-2.3,18.5-3.2c2.4-0.4,3.6-1.4,4.5-3.7c2.7-7.1,5.8-14,8.5-21.1
		c0.5-1.3,0.3-3.4-0.4-4.5c-3.4-5.3-7.1-10.3-10.7-15.4c-10.3-15-9-31.3,3.7-44.3c5.1-5.3,10.3-10.4,15.6-15.6
		c13-12.7,29.3-14,44.3-3.7c5.2,3.6,10.2,7.3,15.4,10.7c1.2,0.7,3.2,0.9,4.5,0.4c7.2-2.8,14.3-5.7,21.4-8.9c1.4-0.6,2.8-2.4,3.2-3.8
		c1.2-5.1,1.9-10.2,2.7-15.3c1.4-8.9,4.4-17,11.3-23.2c5-4.5,11.1-6.7,17.4-8.4C234.2,45.1,245.4,45.1,256.6,45.1z"/>
	<path d="M233.1,169.8c8.6,8.7,16.9,17.2,25.2,25.6c4.5,4.6,8.4,9.7,10.2,16c4.2,14.2,0.8,26.6-9.5,37.1c-7,7.1-14.1,14.2-21.4,21
		c-15.5,14.4-36.4,13.9-51.6-1c-7.8-7.7-15.4-15.6-23-23.4c-1-1-1.6-2.4-2.4-3.7c-0.6,0.3-1.3,0.6-1.9,0.9
		c0.4,6.3,0.3,12.6,1.4,18.8c7,39,39.9,65.9,79.7,64.9c17-0.4,32.6,2.7,46.2,13.3c2.7,2.1,5.3,4.5,7.7,6.9
		c21.3,21.9,42.6,43.8,63.7,65.8c1.8,1.8,3.2,4.3,3.9,6.7c1.2,4.6-0.9,8.8-4.7,10.9c-3.6,2-8.6,1.6-12-1.2c-1-0.8-1.9-1.8-2.9-2.8
		c-20.2-20.9-40.7-41.5-60.6-62.7c-10.9-11.5-23.7-17-39.5-16.2c-25.1,1.3-47.8-6.2-67-22.3c-27.3-23-39.2-52.7-35.5-88.4
		c0.8-7.5,5.6-12.6,12.6-15.2c7.2-2.7,14.2-1.8,19.8,3.5c9.8,9.3,19,19.1,28.5,28.6c1.7,1.7,3.5,3.3,5.6,4.5
		c5.5,3.1,12.1,2.3,17-2.3c7.8-7.3,15.4-14.7,22.8-22.4c6.1-6.3,5.6-14.9-0.7-21.5c-9-9.3-18.2-18.4-27.1-27.7
		c-8.3-8.6-8.8-20-1.3-28.4c3.9-4.4,8.9-6.1,14.5-6.5c48.9-3.6,94.3,30.2,103.9,78.2c2,9.8,2,20.1,1.8,30.2
		c-0.2,13.6,4.2,24.9,13.7,34.6c21.3,21.7,42.3,43.6,63.6,65.4c2.8,2.9,4.8,6,4,10.3c-1.5,8.2-10.4,11.5-16.8,6.2
		c-1-0.8-1.9-1.8-2.9-2.8c-20.3-21-40.4-42.2-61.1-62.8c-15.5-15.5-22.7-33.7-21-55.6c1-13.4-1.8-26.2-7.3-38.4
		c-12.6-27.6-43.8-46.4-74-44.6C234.3,169.3,234.1,169.4,233.1,169.8z"/>
</g>
</svg>
