<?xml version="1.0" encoding="utf-8"?>
<!-- Generator: Adobe Illustrator 21.0.0, SVG Export Plug-In . SVG Version: 6.00 Build 0)  -->
<svg version="1.1" id="Layer_1" xmlns="http://www.w3.org/2000/svg" xmlns:xlink="http://www.w3.org/1999/xlink" x="0px" y="0px"
	 viewBox="0 0 500 500" style="enable-background:new 0 0 500 500;" xml:space="preserve">
<g>
	<path d="M295.1,432.8c-0.8,5.5-1.3,10.3-2.1,15c-1.7,10.6-9.7,17.8-20.4,17.9c-15.1,0.1-30.2,0.1-45.3,0
		c-11.4-0.1-18.7-6.7-20.5-18.1c-0.7-4.6-1.3-9.3-2-14.9c-3.3,2.6-6.3,4.7-9.1,7c-9.3,8-22.2,9.8-32.7-2
		c-7.7-8.6-16.1-16.5-24.5-24.4c-1.8-1.7-4.7-2.9-7.1-2.9c-18.8-0.2-37.7-0.1-56.5-0.1c-26.2,0-44.1-17.9-44.2-44
		c0-89.2,0-178.4,0-267.5c0-25.9,17.9-43.9,43.7-43.9c117,0,233.9,0,350.9,0c25.8,0,43.9,18,43.9,43.8c0.1,89.3,0.1,178.7,0,268
		c0,25.6-18.1,43.6-43.6,43.6c-18.8,0.1-37.7,0.1-56.5-0.1c-3.6,0-6,1.1-8.5,3.6c-8.5,8.7-17.1,17.3-25.8,25.9
		c-8.7,8.6-18.7,9.2-28.4,1.8C302.8,438.7,299.3,435.9,295.1,432.8z M359.3,368.9c3.8,5.2,7.5,9.6,10.3,14.5c1.6,2.7,3.1,3.5,6,3.5
		c16.2-0.1,32.5,0,48.7-0.1c14.5,0,21.5-7,21.5-21.5c0-65.1,0-130.3,0-195.4c0-1.7,0-3.5,0-5.5c-130.8,0-261,0-391.4,0
		c-0.1,1.4-0.3,2.5-0.3,3.6c0,66.6,0,133.2,0,199.8c0,11.4,7.4,18.9,19,19c17.2,0.2,34.4,0.1,51.7,0c1.2,0,3-0.1,3.6-0.8
		c4.1-5.5,8.1-11.2,12.2-17.1c-5.6-0.8-10.8-1.3-15.8-2.3c-9.6-1.8-16.7-9.8-16.8-19.4c-0.2-15.8-0.2-31.5,0-47.3
		c0.2-10.4,7.3-17.8,17.7-19.3c4.9-0.7,9.7-1.3,15.3-2.1c-3.3-4.2-6.1-7.8-8.8-11.4c-7.1-9.6-6.4-20,2.1-28.5
		c10.2-10.2,20.4-20.5,30.7-30.7c8.9-8.8,18.7-9.4,28.8-1.7c3.5,2.7,7.1,5.4,11,8.3c0.9-6,1.4-11.2,2.5-16.3
		c1.9-9.5,9.6-16.3,19.1-16.5c15.8-0.3,31.5-0.3,47.3,0c10.7,0.2,18,7.3,19.5,18c0.7,4.7,1.4,9.4,2.1,14.7c4.6-3.4,8.3-6.5,12.3-9.3
		c9-6.2,19.3-5.3,27,2.3c10.6,10.5,21.2,21.1,31.7,31.7c8.2,8.3,8.7,18.3,1.6,27.7c-2.8,3.7-5.6,7.4-8.7,11.5
		c5.8,0.9,10.8,1.5,15.7,2.4c9.1,1.7,16.5,8.6,16.7,17.2c0.5,17.2,0.5,34.4,0,51.6c-0.3,9-7.6,15.7-16.7,17.1
		C370,367.5,365,368.1,359.3,368.9z M368.3,303.4c-9.5-1.3-18.5-2.3-27.5-3.7c-16.3-2.5-19.4-10.6-9.3-23.9
		c5.5-7.2,11-14.4,15.7-20.6c-9.9-9.9-19.2-19.3-28.8-29c-7.6,5.8-15.5,11.9-23.5,18c-9.6,7.2-19.1,3.2-20.7-8.6
		c-1.3-10.1-2.8-20.1-4.1-30.2c-13.8,0-27,0-40.5,0c-1.4,10.4-2.7,20.5-4,30.7c-0.8,6.6-3.8,10.4-9.2,11.8c-4.4,1.1-7.9-0.4-11.3-3
		c-8.2-6.4-16.4-12.7-24.1-18.7c-9.7,9.8-19,19.2-28.7,28.9c6.2,7.9,12.7,16.2,19,24.6c6.7,8.8,2.5,18.4-8.5,19.9
		c-10.4,1.4-20.8,2.7-31.4,4.1c0,13.6,0,26.9,0,40.4c5.2,0.7,10.2,1.4,15.1,2c5,0.7,10,1.2,15,1.9c13.1,1.8,16.9,10.9,8.8,21.3
		c-6.1,8-12.3,15.9-18.2,23.5c9.7,9.7,19,19.1,28.7,28.8c8-6.2,16.3-12.7,24.6-19.1c9-6.9,18.7-2.6,20.1,8.7
		c1.3,10.3,2.6,20.6,4,30.9c13.7,0,27,0,40.5,0c0.7-5.2,1.4-10.1,2-14.9c0.6-5,1.7-10,1.8-15c0.2-11.6,12.5-16.6,21.4-8.8
		c7.5,6.6,15.9,12.3,23.5,18c9.7-9.7,19.1-19,28.8-28.8c-5.8-7.6-12-15.8-18.3-23.8c-3.2-4-4.6-8.3-2.6-13.1c2-5.1,6.3-6.9,11.5-7.6
		c10-1.2,19.9-2.6,30.1-4C368.3,330.5,368.3,317.2,368.3,303.4z M445.7,140.4c0-15.5,0.4-30.4-0.1-45.3
		c-0.4-10.5-8.3-16.9-19.5-16.9c-117.5,0-234.9,0-352.4,0c-12,0-19.5,7.4-19.5,19.5c-0.1,11.5,0,23.1,0,34.6c0,2.7,0,5.4,0,8.2
		C185,140.4,315.1,140.4,445.7,140.4z"/>
	<path d="M182.7,323.5c0.1-37,30.2-67.1,67.3-67.1c37.2,0,67.4,30.5,67.3,67.7c-0.2,36.9-30.5,66.9-67.6,66.9
		C212.7,390.9,182.7,360.6,182.7,323.5z M206.1,323.8c0,24.4,19.6,43.8,44.1,43.8c24.1-0.1,43.6-19.6,43.7-43.7
		c0.1-24.4-19.5-44-43.9-44C225.6,279.8,206.1,299.3,206.1,323.8z"/>
	<path d="M249.7,121.1c-35.7,0-71.4,0-107.2,0c-1.9,0-3.9,0-5.8-0.1c-5.4-0.5-9.7-4.7-10.4-10c-0.7-5.5,2.5-10.9,7.9-12.4
		c2.3-0.7,4.8-0.8,7.2-0.8c72.4,0,144.8,0,217.2,0c1.5,0,2.9-0.1,4.4,0.1c6.3,0.8,10.8,5.8,10.7,11.8c-0.1,6.3-4.9,11.3-11.6,11.4
		c-12,0.2-24,0.1-36,0.1C300.7,121.1,275.2,121.1,249.7,121.1z"/>
	<path d="M112.4,110c0.1,6.7-5.6,12.4-12.3,12.6c-6.7,0.1-12.5-5.5-12.6-12.3c-0.1-6.7,5.6-12.5,12.3-12.6
		C106.5,97.6,112.3,103.3,112.4,110z"/>
	<path d="M387.6,110c0-6.7,5.7-12.4,12.4-12.3c6.8,0,12.3,5.7,12.2,12.5c0,6.9-5.6,12.4-12.4,12.3
		C393.1,122.5,387.5,116.7,387.6,110z"/>
</g>
</svg>
