<?xml version="1.0" encoding="utf-8"?>
<!-- Generator: Adobe Illustrator 21.0.0, SVG Export Plug-In . SVG Version: 6.00 Build 0)  -->
<svg version="1.1" id="Layer_1" xmlns="http://www.w3.org/2000/svg" xmlns:xlink="http://www.w3.org/1999/xlink" x="0px" y="0px"
	 viewBox="0 0 500 500" style="enable-background:new 0 0 500 500;" xml:space="preserve">
<g>
	<path d="M5,480.2c5.9-13.9,18.6-9.9,29.8-10.7c0-2.2,0-4.1,0-6c0-50.3,0-100.7,0-151c0-12.9,5.1-18,18.1-18c17.3,0,34.6,0,51.9,0
		c10.9,0,16.5,5.7,16.5,16.6c0,50.7,0,101.3,0,152c0,1.9,0,3.8,0,6.1c9.6,0,18.9,0,28.9,0c0-1.7,0-3.4,0-5.1c0-31.6,0-63.2,0-94.7
		c0-11.7,5.4-17.2,17-17.2c17.5,0,34.9,0,52.4,0c11.9,0,17.2,5.4,17.2,17.4c0,31.4,0,62.8,0,94.3c0,1.7,0,3.4,0,5.4
		c9.7,0,18.9,0,28.9,0c0-1.8,0-3.7,0-5.5c0-69.6,0-139.1,0-208.7c0-13.3,5-18.3,18.2-18.3c17,0,34,0,51,0c12,0,17.4,5.4,17.4,17.3
		c0,69.7,0,139.5,0,209.2c0,1.9,0,3.8,0,6c9.6,0,19,0,28.9,0c0-2,0-3.8,0-5.7c0-98.3,0-196.5,0-294.8c0-13.6,4.9-18.5,18.5-18.6
		c16.8,0,33.7,0,50.5,0c12.3,0,17.6,5.3,17.6,17.5c0,98.6,0,197.2,0,295.7c0,1.9,0,3.8,0,6c11.2,0.8,23.9-3.2,29.8,10.7
		c0,2.6,0,5.1,0,7.7c-3.5,3.5-7.1,7.1-10.6,10.6c-157.1,0-314.2,0-471.3,0c-3.5-3.5-7.1-7.1-10.6-10.6C5,485.4,5,482.8,5,480.2z
		 M410.3,179.4c0,96.9,0,193.4,0,289.9c9.7,0,19,0,28.3,0c0-96.8,0-193.2,0-289.9C429.1,179.4,419.9,179.4,410.3,179.4z
		 M294.9,265.9c0,68.1,0,135.8,0,203.5c9.6,0,18.8,0,28.3,0c0-67.9,0-135.6,0-203.5C313.7,265.9,304.4,265.9,294.9,265.9z
		 M92.1,469.5c0-49,0-97.4,0-145.8c-9.6,0-18.9,0-28.2,0c0,48.7,0,97.2,0,145.8C73.5,469.5,82.7,469.5,92.1,469.5z M179.4,381.4
		c0,29.6,0,58.8,0,87.9c9.7,0,19,0,28.3,0c0-29.5,0-58.6,0-87.9C198.2,381.4,189,381.4,179.4,381.4z"/>
	<path d="M429.2,6c8.6,1.9,16.9,4.6,23.6,10.9c12.8,12,17.7,26.6,13.1,43.5c-4.8,17.7-16.9,28.1-35,31.4c-9.7,1.8-18.8,0-27.3-4.8
		c-2.3-1.3-3.9-1.3-6,0.3c-14.9,11.3-30,22.5-44.9,33.9c-1.1,0.8-1.9,3.2-1.6,4.6c3.2,16.2-0.7,30.4-12.9,41.6
		c-13,11.9-28.3,14.6-45.1,8.8c-1.4-0.5-3.8,0-4.8,1c-17.9,17.7-35.7,35.5-53.4,53.4c-1,1-1.4,3.5-1,4.8c9.6,28-6.9,54.9-36.1,58.7
		c-24.9,3.3-47.7-17.7-47.4-43.8c0-3.4-0.8-5.1-3.9-6.6c-11.5-5.5-23-11.3-34.4-17.2c-2.8-1.4-4.6-1.5-7.2,0.5
		C91,238,75.6,240,59.8,232.5c-16.4-7.7-25-21.5-24.8-39.6c0.3-18.1,9.4-31.4,25.9-38.9c28.3-13,60.7,8.8,60.3,40.5
		c0,3.4,0.9,5.1,3.9,6.6c11.5,5.6,23,11.3,34.4,17.2c2.8,1.4,4.6,1.5,7.2-0.6c12.7-9.9,26.8-12.3,42-6.7c2.8,1,4.3,0.4,6.2-1.5
		c17.4-17.5,34.9-35,52.4-52.4c1.8-1.8,2.3-3.2,1.4-5.8c-6.3-17.1-1.6-36.3,11.3-47.4c14.8-12.7,32.8-14.8,50-5.7
		c2.4,1.3,3.9,1,6-0.6c14.8-11.2,29.7-22.3,44.5-33.6c1.2-0.9,2.2-3.2,1.9-4.5c-5.9-24.5,10.7-49.6,36-52.9c0.4-0.1,0.9-0.4,1.3-0.6
		C422.8,6,426,6,429.2,6z M424.6,63.7c7.8-0.1,14.3-6.8,14.2-14.6c-0.1-7.8-6.8-14.3-14.6-14.2c-7.8,0.1-14.3,6.8-14.2,14.6
		C410.1,57.4,416.8,63.8,424.6,63.7z M308.9,121.5c-7.8,0-14.4,6.6-14.3,14.4c0,7.8,6.6,14.4,14.4,14.3c7.8,0,14.4-6.6,14.3-14.4
		C323.3,128,316.8,121.4,308.9,121.5z M92.5,193.5c-0.1-7.9-6.7-14.3-14.5-14.3c-7.8,0.1-14.3,6.7-14.3,14.5
		c0.1,7.9,6.7,14.3,14.5,14.3C86.1,207.9,92.6,201.3,92.5,193.5z M207.9,251.4c0.1-7.8-6.4-14.4-14.3-14.5
		c-7.8-0.1-14.4,6.4-14.5,14.3c-0.1,7.8,6.4,14.4,14.3,14.5C201.2,265.8,207.9,259.3,207.9,251.4z"/>
</g>
</svg>
